HIERARCHY
ROOT hip
{
	OFFSET 0.000000 0.000000 0.000000 
	CHANNELS 6 Xposition Yposition Zposition Xrotation Zrotation Yrotation
	JOINT abdomen
	{
		OFFSET 0.000000 3.402643 0.000000 
		CHANNELS 3 Xrotation Zrotation Yrotation
		JOINT chest
		{
			OFFSET 0.000000 8.438565 -0.680529 
			CHANNELS 3 Xrotation Zrotation Yrotation
			JOINT neck
			{
				OFFSET 0.000000 10.207942 -0.272212 
				CHANNELS 3 Xrotation Zrotation Yrotation
				JOINT head
				{
					OFFSET 0.000000 3.130431 0.000000 
					CHANNELS 3 Xrotation Zrotation Yrotation
					End Site
					{
						OFFSET 0.000000 3.130435 0.000000 
					}
				}
			}
			JOINT lCollar
			{
				OFFSET 3.470700 6.669187 -0.816635 
				CHANNELS 3 Yrotation Zrotation Xrotation
				JOINT lShldr
				{
					OFFSET 3.198488 0.000000 0.000000 
					CHANNELS 3 Zrotation Yrotation Xrotation
					JOINT lForeArm
					{
						OFFSET 10.139888 0.000000 0.000000 
						CHANNELS 3 Yrotation Zrotation Xrotation
						JOINT lHand
						{
							OFFSET 8.370511 0.000000 0.000000 
							CHANNELS 3 Zrotation Yrotation Xrotation
							End Site
							{
								OFFSET 4.083176 0.000000 0.000000 
							}
						}
					}
				}
			}
			JOINT rCollar
			{
				OFFSET -3.470700 6.669187 -0.816635 
				CHANNELS 3 Yrotation Zrotation Xrotation
				JOINT rShldr
				{
					OFFSET -3.198488 0.000000 0.000000 
					CHANNELS 3 Zrotation Yrotation Xrotation
					JOINT rForeArm
					{
						OFFSET -10.139888 0.000000 0.000000 
						CHANNELS 3 Yrotation Zrotation Xrotation
						JOINT rHand
						{
							OFFSET -8.370511 0.000000 0.000000 
							CHANNELS 3 Zrotation Yrotation Xrotation
							End Site
							{
								OFFSET -4.083176 0.000000 0.000000 
							}
						}
					}
				}
			}
		}
	}
	JOINT lThigh
	{
		OFFSET 5.308129 -1.633274 1.361059 
		CHANNELS 3 Xrotation Zrotation Yrotation
		JOINT lShin
		{
			OFFSET -2.041588 -20.007561 0.000000 
			CHANNELS 3 Xrotation Zrotation Yrotation
			JOINT lFoot
			{
				OFFSET 0.000000 -19.190928 -1.224953 
				CHANNELS 3 Xrotation Yrotation Zrotation
				End Site
				{
					OFFSET 0.000000 -2.449906 4.627600 
				}
			}
		}
	}
	JOINT rThigh
	{
		OFFSET -5.308129 -1.633274 1.361059 
		CHANNELS 3 Xrotation Zrotation Yrotation
		JOINT rShin
		{
			OFFSET 2.041588 -20.007561 0.000000 
			CHANNELS 3 Xrotation Zrotation Yrotation
			JOINT rFoot
			{
				OFFSET 0.000000 -19.190928 -1.224953 
				CHANNELS 3 Xrotation Yrotation Zrotation
				End Site
				{
					OFFSET 0.000000 -2.449906 4.627600 
				}
			}
		}
	}
}
MOTION
Frames: 6
Frame Time: 0.016667
-0.116191 47.992573 0.174080 -11.761827 2.722221 -14.567391 0.000000 0.000000 0.000000 12.246778 -5.796033 -2.327270 13.463462 -2.620631 -3.978930 -9.482409 0.392697 -11.250202 5.855460 -25.000000 0.891972 -58.357880 4.268139 -5.712219 -12.474977 -3.022817 11.391261 -12.575109 -0.977851 14.934760 5.005103 22.197701 -1.947660 62.303223 -1.416435 -0.723428 4.638458 -2.860365 10.143243 9.002232 7.721885 0.377187 8.445818 -0.204744 1.460412 11.195417 -3.455858 13.132200 -8.969695 5.444685 0.836882 -5.507097 -18.891865 -3.832992 21.319668 -0.225402 -5.690305 -6.024638 4.946192 12.345948 
-0.118968 47.991150 0.180042 -11.775107 2.741488 -14.538128 0.000000 0.000000 0.000000 12.247974 -5.825305 -2.327274 13.453228 -2.601085 -3.998439 -9.437695 0.363951 -11.259971 5.849539 -25.000000 0.922538 -58.333149 4.255132 -5.777810 -12.616134 -3.061367 11.470842 -12.620613 -1.168182 14.907292 5.027851 22.176712 -1.956621 62.342243 -1.429124 -0.728512 4.641156 -2.868399 10.163174 8.997535 7.706197 0.413886 8.464481 -0.214301 1.447861 11.197870 -3.447275 13.123204 -8.968566 5.428267 0.829178 -5.467141 -18.947714 -3.798012 21.312031 -0.186201 -5.732647 -6.028676 4.921242 12.335771 
-0.128989 47.988201 0.204855 -11.764096 2.799806 -14.411799 0.000000 0.000000 0.000000 12.244220 -5.873930 -2.366137 13.443537 -2.552130 -4.076482 -9.307361 0.296867 -11.298977 5.852677 -25.000000 0.978968 -58.286335 4.218509 -5.799784 -12.968713 -3.187934 11.559303 -12.569240 -1.146934 14.829535 4.990671 22.179338 -1.938673 62.370712 -1.431662 -0.650568 4.648302 -2.894071 10.202062 9.042201 7.629720 0.524592 8.479511 -0.233355 1.384962 11.176994 -3.439190 13.047230 -9.018756 5.394732 0.837312 -5.448899 -19.019976 -3.851004 21.323833 -0.146807 -5.774220 -6.043796 4.899097 12.358850 
-0.131675 47.988983 0.213325 -11.762186 2.800296 -14.372786 0.000000 0.000000 0.000000 12.254991 -5.873888 -2.375851 13.443443 -2.532555 -4.105748 -9.287829 0.296867 -11.298978 5.857392 -25.000000 0.987773 -58.258385 4.209997 -5.816165 -13.119351 -3.230315 11.599361 -12.628562 -1.353352 14.806361 5.025351 22.169214 -1.925885 62.400288 -1.436246 -0.681786 4.639683 -2.894217 10.222129 9.073140 7.637553 0.540880 8.488720 -0.223607 1.375770 11.172194 -3.416612 12.990523 -9.005980 5.397166 0.838099 -5.439212 -19.030394 -3.881856 21.324625 -0.137111 -5.792029 -6.048954 4.918013 12.367895 
-0.135505 47.990616 0.233836 -11.752587 2.782586 -14.274778 0.000000 0.000000 0.000000 12.247233 -5.873806 -2.396279 13.442908 -2.483638 -4.174039 -9.231393 0.258553 -11.308697 5.836492 -25.000000 1.031301 -58.218155 4.141589 -5.789241 -13.538989 -3.326199 11.578979 -12.683535 -1.270217 14.743703 5.021739 22.179831 -1.916878 62.419827 -1.418316 -0.669483 4.656218 -2.906162 10.290044 9.148812 7.597548 0.671090 8.494717 -0.194771 1.320215 11.194112 -3.435502 12.919319 -9.021301 5.438516 0.879459 -5.399607 -19.039173 -4.034119 21.322691 -0.140860 -5.743967 -6.058026 4.930796 12.353079 
-0.137343 47.990990 0.242473 -11.760454 2.783067 -14.235765 0.000000 0.000000 0.000000 12.249832 -5.863922 -2.425421 13.442908 -2.483638 -4.174039 -9.178776 0.239393 -11.318420 5.865067 -25.000000 1.053008 -58.199482 4.091768 -5.796934 -13.673448 -3.350990 11.600598 -12.697416 -1.290501 14.729140 5.074127 22.181177 -1.873314 62.430202 -1.397133 -0.713769 4.668061 -2.913235 10.300127 9.131563 7.585036 0.687363 8.496226 -0.184758 1.341151 11.182716 -3.434462 12.881046 -9.048688 5.420125 0.904669 -5.390327 -19.031656 -4.035083 21.314457 -0.150322 -5.784943 -6.042176 4.915407 12.355272 
